#define ckdistro_width 20
#define ckdistro_height 20
static unsigned char ckdistro_bits[] = {
   0x00, 0x00, 0x06, 0xf0, 0x87, 0x07, 0xf8, 0xc7, 0x07, 0xfc, 0xe7, 0x03,
   0x3e, 0xf0, 0x01, 0x1e, 0xf8, 0x00, 0x1e, 0x7c, 0x00, 0x1e, 0x3f, 0x00,
   0x9e, 0x1f, 0x00, 0x9e, 0x0f, 0x00, 0x9e, 0x1f, 0x00, 0x1e, 0x3f, 0x00,
   0x1e, 0x7c, 0x00, 0x1e, 0xf8, 0x00, 0x1e, 0xf0, 0x01, 0x3e, 0xe0, 0x03,
   0xfc, 0xcf, 0x07, 0xf8, 0x8f, 0x07, 0xf0, 0x0f, 0x07, 0x00, 0x00, 0x06 };
